<svg viewBox="0 0 36 36" xmlns="http://www.w3.org/2000/svg" xmlns:xlink="http://www.w3.org/1999/xlink" width="36.000000" height="36.000000" fill="none" customFrame="#000000">
	<rect id="Frame 36" width="36.000000" height="36.000000" x="0.000000" y="0.000000" fill="rgb(255,255,255)" fill-opacity="0" />
	<path id="Vector" d="M20.125 5.75L20.3438 5.75C20.6719 5.75 21 5.47656 21 5.09375L21 4.65625C21 4.32812 20.6719 4 20.3438 4L0.65625 4C0.273438 4 0 4.32812 0 4.65625L0 5.09375C0 5.47656 0.273438 5.75 0.65625 5.75L0.875 5.75C0.875 10.7812 3.28125 16.3594 7.92969 18C3.22656 19.6953 0.875 25.2734 0.875 30.25L0.65625 30.25C0.273438 30.25 0 30.5781 0 30.9062L0 31.3438C0 31.7266 0.273438 32 0.65625 32L20.3438 32C20.6719 32 21 31.7266 21 31.3438L21 30.9062C21 30.5781 20.6719 30.25 20.3438 30.25L20.125 30.25C20.125 25.2734 17.6641 19.6953 13.0156 18C17.7188 16.3594 20.125 10.7812 20.125 5.75ZM2.625 5.75L18.375 5.75C18.375 11.8203 14.8203 16.6875 10.5 16.6875C6.125 16.6875 2.625 11.8203 2.625 5.75ZM18.375 30.25L2.625 30.25C2.625 24.2344 6.125 19.3125 10.5 19.3125C14.8203 19.3125 18.375 24.2344 18.375 30.25ZM14.7109 12.0391C15.0391 11.6562 14.7109 11 14.1641 11L6.78125 11C6.23438 11 5.90625 11.6562 6.23438 12.0391C6.34375 12.2031 6.45312 12.3672 6.61719 12.5312C6.72656 12.6953 6.89062 12.75 7.10938 12.75L13.8359 12.75C14.0547 12.75 14.2188 12.6953 14.3281 12.5312C14.4922 12.3672 14.6016 12.2031 14.7109 12.0391ZM5.35938 26.75C5.03125 26.75 4.8125 26.9688 4.70312 27.2422C4.70312 27.4062 4.64844 27.5703 4.59375 27.7344C4.53906 28.1172 4.8125 28.5 5.25 28.5L15.6953 28.5C16.1328 28.5 16.4062 28.1172 16.3516 27.7344C16.2969 27.5703 16.2422 27.4062 16.2422 27.2422C16.1328 26.9688 15.9141 26.75 15.5859 26.75L5.35938 26.75Z" fill="rgb(91.8,141.525,229.5)" fill-rule="nonzero" />
</svg>
